<svg width="50" height="50" viewBox="0 0 50 50" fill="none" xmlns="http://www.w3.org/2000/svg">
<rect x="0.5" y="0.5" width="49" height="49" rx="11.5" stroke="#DFE3E9"/>
<rect x="13" y="15.7693" width="24" height="21.2308" rx="3" stroke="#012764" stroke-width="1.5" stroke-linecap="round"/>
<path d="M13 22.2308H37" stroke="#012764" stroke-width="1.5" stroke-linecap="round"/>
<path d="M18.5387 13V18.5385" stroke="#012764" stroke-width="1.5" stroke-linecap="round"/>
<path d="M31.4615 13V18.5385" stroke="#012764" stroke-width="1.5" stroke-linecap="round"/>
<path fill-rule="evenodd" clip-rule="evenodd" d="M18.0771 28.6926C18.8418 28.6926 19.4617 28.0727 19.4617 27.308C19.4617 26.5433 18.8418 25.9233 18.0771 25.9233C17.3124 25.9233 16.6925 26.5433 16.6925 27.308C16.6925 28.0727 17.3124 28.6926 18.0771 28.6926ZM19.4616 31.9237C19.4616 32.6884 18.8417 33.3083 18.077 33.3083C17.3123 33.3083 16.6924 32.6884 16.6924 31.9237C16.6924 31.159 17.3123 30.5391 18.077 30.5391C18.8417 30.5391 19.4616 31.159 19.4616 31.9237ZM24.0768 31.9237C24.0768 32.6884 23.4569 33.3083 22.6922 33.3083C21.9275 33.3083 21.3076 32.6884 21.3076 31.9237C21.3076 31.159 21.9275 30.5391 22.6922 30.5391C23.4569 30.5391 24.0768 31.159 24.0768 31.9237ZM27.308 33.3083C28.0727 33.3083 28.6926 32.6884 28.6926 31.9237C28.6926 31.159 28.0727 30.5391 27.308 30.5391C26.5433 30.5391 25.9233 31.159 25.9233 31.9237C25.9233 32.6884 26.5433 33.3083 27.308 33.3083ZM33.3078 31.9237C33.3078 32.6884 32.6879 33.3083 31.9232 33.3083C31.1585 33.3083 30.5385 32.6884 30.5385 31.9237C30.5385 31.159 31.1585 30.5391 31.9232 30.5391C32.6879 30.5391 33.3078 31.159 33.3078 31.9237ZM24.0768 27.308C24.0768 28.0727 23.4569 28.6926 22.6922 28.6926C21.9275 28.6926 21.3076 28.0727 21.3076 27.308C21.3076 26.5433 21.9275 25.9233 22.6922 25.9233C23.4569 25.9233 24.0768 26.5433 24.0768 27.308ZM27.308 28.6926C28.0727 28.6926 28.6926 28.0727 28.6926 27.308C28.6926 26.5433 28.0727 25.9233 27.308 25.9233C26.5433 25.9233 25.9233 26.5433 25.9233 27.308C25.9233 28.0727 26.5433 28.6926 27.308 28.6926ZM33.3078 27.308C33.3078 28.0727 32.6879 28.6926 31.9232 28.6926C31.1585 28.6926 30.5386 28.0727 30.5386 27.308C30.5386 26.5433 31.1585 25.9233 31.9232 25.9233C32.6879 25.9233 33.3078 26.5433 33.3078 27.308Z" fill="#012764"/>
</svg>
