<svg width="50" height="50" viewBox="0 0 50 50" fill="none" xmlns="http://www.w3.org/2000/svg">
<rect x="0.5" y="0.5" width="49" height="49" rx="11.5" stroke="#DFE3E9"/>
<path fill-rule="evenodd" clip-rule="evenodd" d="M19.7075 18.2832C19.3348 15.4856 21.5112 13 24.3334 13V13C27.1557 13 29.3321 15.4856 28.9594 18.2832L28.356 22.8112C28.0873 24.8275 26.3675 26.3333 24.3334 26.3333V26.3333C22.2994 26.3333 20.5795 24.8275 20.3109 22.8112L19.7075 18.2832Z" stroke="#0C2245" stroke-width="1.5" stroke-linecap="round"/>
<path d="M19.2878 28.3934C19.6892 28.2911 19.9316 27.8828 19.8293 27.4814C19.727 27.08 19.3187 26.8376 18.9173 26.9399L19.2878 28.3934ZM29.7494 26.9399C29.348 26.8376 28.9397 27.08 28.8373 27.4814C28.735 27.8828 28.9775 28.2911 29.3788 28.3934L29.7494 26.9399ZM34.9706 30.3439L34.2269 30.4411L34.9706 30.3439ZM35.2235 32.2776L34.4798 32.3749L35.2235 32.2776ZM13.6961 30.3439L12.9524 30.2466L13.6961 30.3439ZM18.9173 26.9399L14.9999 27.9384L15.3704 29.3919L19.2878 28.3934L18.9173 26.9399ZM12.9524 30.2466L12.6995 32.1804L14.1868 32.3749L14.4397 30.4411L12.9524 30.2466ZM16.4178 36.4166H32.2488V34.9166H16.4178V36.4166ZM35.9672 32.1804L35.7143 30.2466L34.2269 30.4411L34.4798 32.3749L35.9672 32.1804ZM33.6668 27.9384L29.7494 26.9399L29.3788 28.3934L33.2963 29.3919L33.6668 27.9384ZM35.7143 30.2466C35.5684 29.1307 34.7573 28.2164 33.6668 27.9384L33.2963 29.3919C33.7919 29.5183 34.1606 29.9339 34.2269 30.4411L35.7143 30.2466ZM32.2488 36.4166C34.513 36.4166 36.2607 34.4254 35.9672 32.1804L34.4798 32.3749C34.656 33.7219 33.6073 34.9166 32.2488 34.9166V36.4166ZM12.6995 32.1804C12.4059 34.4254 14.1537 36.4166 16.4178 36.4166V34.9166C15.0594 34.9166 14.0107 33.7219 14.1868 32.3749L12.6995 32.1804ZM14.9999 27.9384C13.9094 28.2164 13.0983 29.1308 12.9524 30.2466L14.4397 30.4411C14.506 29.9339 14.8747 29.5183 15.3704 29.3919L14.9999 27.9384Z" fill="#0C2245"/>
<path d="M31 38C31 34.134 34.134 31 38 31H49V38C49 44.0751 44.0751 49 38 49H31V38Z" fill="#DC0812"/>
<path d="M42.7155 37.3857V42.4654H37.6358" stroke="white" stroke-linecap="round" stroke-linejoin="round"/>
<path d="M42.7148 42.4653L37.0002 36.7507" stroke="white" stroke-linecap="round" stroke-linejoin="round"/>
</svg>
